<svg xmlns="http://www.w3.org/2000/svg" xmlns:xlink="http://www.w3.org/1999/xlink" width="652" height="320" viewBox="0 0 652 320"><defs><linearGradient id="a" x1="-8942.87" y1="-10191.82" x2="-8897.05" y2="-10191.82" gradientTransform="matrix(-0.69, -0.44, -0.04, 0.82, -6110.33, 4419.1)" gradientUnits="userSpaceOnUse"><stop offset="0" stop-color="#8fca72"/><stop offset="1" stop-color="#069183"/></linearGradient><linearGradient id="b" x1="-6240.59" y1="-6183.25" x2="-6201.63" y2="-6183.25" gradientTransform="matrix(-0.99, -0.1, -0.1, 0.99, -6347.59, 5605.63)" xlink:href="#a"/><linearGradient id="c" x1="-6144.05" y1="-6245.01" x2="-6105.09" y2="-6245.01" gradientTransform="matrix(-0.1, 0.99, 0.99, 0.1, 6016.19, 6765.86)" xlink:href="#a"/><linearGradient id="d" x1="-5549.29" y1="-7114.22" x2="-5549.29" y2="-7075.01" gradientTransform="matrix(-0.82, -0.57, -0.57, 0.82, -8159.52, 2691.01)" xlink:href="#a"/></defs><path d="M573.5,242.33c0,2.48-10.25,4.5-22.87,4.5s-22.88-2-22.88-4.5,10.24-4.5,22.88-4.5,22.87,2,22.87,4.5" fill="#d9d9d9" fill-rule="evenodd"/><path d="M499.63,176.63s4.31,4.86,5.76,10.23,4.54,10.8,7.15,9.85c-4.21,1.27-20.47-1.42-14.65-15.67" fill="#d9d9d9" fill-rule="evenodd"/><path d="M543.32,164.82s12,4.65,15.46,16.72,16.36,23.39,21.68,19.12c-22.31,17.86-49.06-5.5-37.14-35.84" fill="#d9d9d9" fill-rule="evenodd"/><path d="M103.3,153.65c-12.54,32.26,20.53,38.7,32.91,27.25-4.71,4.35-15.87-4.29-19.17-14S105.58,151,105.58,151Z" fill="#d9d9d9" fill-rule="evenodd"/><path d="M67.5,194.66s4.2,1.55,6,7.78,5.57,9.76,8.78,8.66c-5.17,1.47-21.9.1-14.76-16.44" fill="#d9d9d9" fill-rule="evenodd"/><path d="M477.6,287.6c46.34,3.43,109.1,3.91,121.53-29.37" fill="none" stroke="#bcbec0" stroke-linecap="round" stroke-linejoin="round" stroke-width="2"/><path d="M456.66,206.78c53.58,3.29,99,10.12,116.24,17.38,22.74,9.55,27,18.79,27,22.93" fill="none" stroke="#bcbec0" stroke-linecap="round" stroke-linejoin="round" stroke-width="2"/><line x1="508.91" y1="197.21" x2="508.91" y2="210" fill="none" stroke="#bcbec0" stroke-linecap="round" stroke-linejoin="round" stroke-width="2"/><path d="M521,186.28c.83,6-5.41,10.92-12.08,10.92s-12.09-4.89-12.09-10.92S505.15,162.07,510,171C513.8,177.84,519.72,177,521,186.28Z" fill="none" stroke="#bcbec0" stroke-linecap="round" stroke-linejoin="round" stroke-width="2"/><line x1="564.88" y1="208.5" x2="564.88" y2="240.95" fill="none" stroke="#bcbec0" stroke-linecap="round" stroke-linejoin="round" stroke-width="2"/><path d="M589.14,180.74C586.71,195.6,578.28,208,564.88,208s-24.27-12.22-24.27-27.29,11.47-58.25,21.27-36C569.45,161.93,591.36,167.15,589.14,180.74Z" fill="none" stroke="#bcbec0" stroke-linecap="round" stroke-linejoin="round" stroke-width="2"/><path d="M598.84,297.75c19.82-15.29,20.37-37.41,15.25-48.43-4.66-10-18.45-12.89-18.45-12.89" fill="none" stroke="#bcbec0" stroke-linecap="round" stroke-linejoin="round" stroke-width="2"/><path d="M595.64,236.43s28.68,2.18,39.63,15.41" fill="none" stroke="#bcbec0" stroke-linecap="round" stroke-linejoin="round" stroke-width="2"/><path d="M108.61,282.2c0,1.44-7.12,2.61-15.9,2.61S76.8,283.64,76.8,282.2s7.12-2.61,15.91-2.61,15.9,1.17,15.9,2.61" fill="#d9d9d9" fill-rule="evenodd"/><path d="M192.19,206.17s-77.75,17-115.29,37c-30.77,16.39-70.66,5.73-46.78-2.29,32.28-10.86,53.49-22,141.64-33Z" fill="#d9d9d9" fill-rule="evenodd"/><path d="M195.45,205C116.51,214.17,84,221.23,26.28,242.21" fill="none" stroke="#bcbec0" stroke-linecap="round" stroke-linejoin="round" stroke-width="2"/><path d="M93,259.81a17.48,17.48,0,0,1,7.63,4.75c4.7,4.79,5.29,15.79,13.17,13.78-3,.75-12.15,5.65-18.86.53s-7-16.38-2.89-19.06" fill="#d9d9d9" fill-rule="evenodd"/><path d="M87.67,203c.8,5.52-5.24,10-11.7,10s-11.7-4.47-11.7-10,8.06-22.18,12.78-14C80.7,195.23,86.43,194.5,87.67,203Z" fill="none" stroke="#bcbec0" stroke-linecap="round" stroke-linejoin="round" stroke-width="2"/><line x1="123.32" y1="185.92" x2="123.32" y2="212.97" fill="none" stroke="#bcbec0" stroke-linecap="round" stroke-linejoin="round" stroke-width="2"/><line x1="75.69" y1="213.46" x2="75.69" y2="225.91" fill="none" stroke="#bcbec0" stroke-linecap="round" stroke-linejoin="round" stroke-width="2"/><path d="M100.55,165.75c.69,11,7.83,19.78,20.41,19.78s22.77-8.92,22.77-19.93-13.84-68.88-22-43.72c-7.77,24.06-22.12,29.49-21.22,43.87" fill="none" stroke="#bfbfbf" stroke-linecap="round" stroke-linejoin="round" stroke-width="2" fill-rule="evenodd"/><path d="M100.55,165.75c.69,11,7.83,19.78,20.41,19.78s22.77-8.92,22.77-19.93-13.84-68.88-22-43.72C114,145.94,99.65,151.37,100.55,165.75Z" fill="none" stroke="#bcbec0" stroke-linecap="round" stroke-linejoin="round" stroke-width="2"/><ellipse cx="290.76" cy="290.51" rx="119.63" ry="13.22" fill="#dcddde"/><path d="M361.7,286.73c-6.38,0-12.8-2.11-19-4.15-5.82-1.92-11.32-3.72-16.25-3.72s-10.43,1.8-16.24,3.72c-6.22,2-12.65,4.15-19,4.15a24.57,24.57,0,0,1-7.59-1.15c-9.15-3-14.83-10.9-20.31-18.56-3.45-4.81-6.7-9.35-10.42-12.06s-9.17-4.48-14.87-6.3c-8.91-2.85-18.13-5.79-23.72-13.47s-5.5-17.22-5.47-26.54c0-6,0-11.73-1.44-16.27-1.38-4.25-4.64-8.68-8.1-13.36-5.38-7.28-11.46-15.53-11.46-25.33s6.08-18.06,11.46-25.33c3.46-4.69,6.72-9.12,8.1-13.37,1.48-4.54,1.46-10.24,1.44-16.27,0-9.31,0-19,5.47-26.54S229.07,61.56,238,58.71c5.7-1.82,11.09-3.54,14.88-6.3s7-7.25,10.41-12.06c5.48-7.66,11.16-15.59,20.31-18.56a24.57,24.57,0,0,1,7.59-1.15c6.37,0,12.8,2.12,19,4.16,5.82,1.91,11.31,3.71,16.24,3.71s10.43-1.8,16.25-3.71c6.22-2,12.65-4.15,19-4.15a24.62,24.62,0,0,1,7.59,1.14c9.15,3,14.82,10.9,20.31,18.56,3.44,4.81,6.7,9.36,10.41,12.06s9.17,4.48,14.87,6.3c8.92,2.85,18.14,5.8,23.72,13.47s5.5,17.23,5.47,26.55c0,6,0,11.72,1.44,16.27,1.38,4.24,4.65,8.67,8.11,13.36,5.37,7.27,11.46,15.52,11.46,25.33S459,171.74,453.62,179c-3.46,4.68-6.73,9.11-8.11,13.36-1.47,4.54-1.46,10.24-1.44,16.27,0,9.32.06,18.95-5.47,26.54s-14.8,10.62-23.72,13.47c-5.7,1.82-11.08,3.55-14.87,6.3s-7,7.25-10.41,12.06c-5.49,7.67-11.16,15.59-20.31,18.56A24.62,24.62,0,0,1,361.7,286.73Z" fill="#0a8b44"/><path d="M459.5,153.69c0,13.62-15.31,24.67-19.3,37-4.14,12.75,1.61,30.65-6.11,41.26s-26.65,10.74-37.37,18.54-16.41,25.68-29.16,29.82c-12.3,4-27.5-7-41.13-7s-28.83,11-41.13,7c-12.74-4.14-18.55-22.1-29.16-29.82s-29.57-7.83-37.36-18.54-2-28.51-6.11-41.26c-4-12.29-19.3-23.34-19.3-37s15.3-24.67,19.3-37c4.13-12.75-1.61-30.65,6.11-41.25s26.65-10.75,37.36-18.54S272.56,31.24,285.3,27.1c12.3-4,27.51,7,41.13,7s28.84-11,41.13-7c12.75,4.14,18.56,22.11,29.16,29.83s29.57,7.82,37.37,18.54,2,28.51,6.11,41.25C444.19,129,459.5,140.06,459.5,153.69Z" fill="none" stroke="#fff" stroke-miterlimit="10" stroke-width="1.56"/><path d="M275,144.54H265.5V160.7h-8.15V115.6H275c10.37,0,15.91,5.79,15.91,14.44S285.4,144.54,275,144.54Zm-.31-21.75H265.5v14.57h9.22c5.47,0,7.95-2.93,7.95-7.25S280.19,122.79,274.72,122.79Z" fill="#fff"/><path d="M312.75,134.68c-5.6,0-8.53,4-8.53,9.35V160.7h-8V127.62H303l.7,5c1.53-3.82,5.47-5.41,9.35-5.41a15.93,15.93,0,0,1,2.48.19V135A13.38,13.38,0,0,0,312.75,134.68Z" fill="#fff"/><path d="M321.58,123.05v-8.21h8.53v8.21Zm.26,37.65V127.62h8.08V160.7Z" fill="#fff"/><path d="M362.73,156.18a14.48,14.48,0,0,1-11.32,5.22,15.07,15.07,0,0,1-11.51-5.22c-2.48-3.11-3.63-7.25-3.63-12.08s1.15-9,3.63-12.09a15.1,15.1,0,0,1,11.51-5.21A14.47,14.47,0,0,1,362.73,132a12.88,12.88,0,0,1,2.54,7.19h-7.82a6.32,6.32,0,0,0-.95-3,5.78,5.78,0,0,0-5.09-2.48,6.47,6.47,0,0,0-4.83,2c-1.91,2.1-2.23,5.28-2.23,8.4s.32,6.23,2.23,8.33a6.51,6.51,0,0,0,4.83,2.1,5.8,5.8,0,0,0,5.09-2.48,6.39,6.39,0,0,0,.95-3.06h7.82A12.85,12.85,0,0,1,362.73,156.18Z" fill="#fff"/><path d="M399.74,146.64H377.61a8.75,8.75,0,0,0,2.42,6.49,7,7,0,0,0,4.89,2c2.29,0,3.69-.44,4.84-1.59a6,6,0,0,0,1.59-2.8H399a13.1,13.1,0,0,1-2.8,6.11c-2.8,3.31-6.93,4.64-11.13,4.64a14.44,14.44,0,0,1-10.43-4.07c-3.31-3.18-5.09-7.82-5.09-13.23s1.59-10,4.77-13.22a14.32,14.32,0,0,1,10.56-4.2,14,14,0,0,1,12.08,6.1c2.42,3.63,3,7.38,2.87,11.52C399.81,144.42,399.74,145.94,399.74,146.64Zm-9.92-11.57a6.61,6.61,0,0,0-5-1.91,6.81,6.81,0,0,0-5.54,2.54,8.12,8.12,0,0,0-1.71,5.15h14.31A8.63,8.63,0,0,0,389.82,135.07Z" fill="#fff"/><path d="M277.26,217.5V185.32l-11.7,31.54h-6l-11.64-31.92V217.5h-7.95V172.41H251l11.83,32.12,11.9-32.12h10.49V217.5Z" fill="#fff"/><path d="M319.8,218c-3.43,0-5.34-2.16-5.59-4.64-1.53,2.67-5.35,5-10,5-7.89,0-12-5-12-10.37,0-6.3,4.9-9.92,11.2-10.37l9.73-.7v-2c0-3.12-1.08-5.22-5.6-5.22-3.69,0-5.85,1.66-6,4.71h-7.7c.45-7.44,6.36-10.75,13.74-10.75,5.66,0,10.49,1.78,12.4,6.74a18.26,18.26,0,0,1,1,6.68V209.3c0,1.52.5,2.09,1.84,2.09a5.11,5.11,0,0,0,1-.12v5.85A8.1,8.1,0,0,1,319.8,218Zm-6.67-15.2-8.4.63c-2.42.2-4.77,1.66-4.77,4.33s2.23,4.13,4.71,4.13c5,0,8.46-2.67,8.46-7.57Z" fill="#fff"/><path d="M341.74,218c-6.67,0-10-3.82-10-10.18V191h-6v-6.55h6V176l7.95-2v10.37H348V191h-8.33v16.09c0,2.54,1.14,3.63,3.69,3.63a40.54,40.54,0,0,0,5.15-.32v6.68A27.12,27.12,0,0,1,341.74,218Z" fill="#fff"/><path d="M378.31,213A14.44,14.44,0,0,1,367,218.2,15.09,15.09,0,0,1,355.48,213c-2.48-3.11-3.63-7.25-3.63-12.08s1.15-9,3.63-12.08A15.09,15.09,0,0,1,367,183.6a14.48,14.48,0,0,1,11.32,5.22,12.85,12.85,0,0,1,2.54,7.18H373a6.39,6.39,0,0,0-.95-3.05,5.8,5.8,0,0,0-5.09-2.48,6.44,6.44,0,0,0-4.83,2c-1.91,2.09-2.23,5.27-2.23,8.39s.32,6.23,2.23,8.33a6.47,6.47,0,0,0,4.83,2.1,5.8,5.8,0,0,0,5.09-2.48,6.35,6.35,0,0,0,.95-3h7.82A12.82,12.82,0,0,1,378.31,213Z" fill="#fff"/><path d="M407.31,217.5V197.08c0-3.81-1.27-6.16-5.47-6.16-4.77,0-6.8,5.08-6.8,9.15V217.5h-8V171.58h8v16.35c1.9-2.8,5.59-4.33,9-4.33,7.06,0,11.19,5,11.19,11.83V217.5Z" fill="#fff"/><path d="M284.89,90.89h-4.5l9.07-19.43H278V67.72h16v3.34Z" fill="#fff"/><path d="M327.16,88.36a9,9,0,0,1-6.63,2.53h-9.2V67.26h9.2a9,9,0,0,1,6.63,2.53c2.44,2.5,2.77,6,2.77,9.27S329.6,85.86,327.16,88.36Zm-3.3-15.9a4.67,4.67,0,0,0-3.33-1.34h-4.9V87h4.9a4.66,4.66,0,0,0,3.33-1.33c1.67-1.67,1.7-4.47,1.7-6.63S325.53,74.12,323.86,72.46Z" fill="#fff"/><path d="M350.28,90.89l-1.54-4.53h-9.39l-1.54,4.53h-4.33l8.3-23.63h4.7l8.3,23.63ZM344,72.52l-3.36,10h6.73Z" fill="#fff"/><path d="M367.34,81.82v9.07H363V81.82l-8.2-14.56h4.67l5.83,10.2,5.83-10.2h4.47Z" fill="#fff"/><path d="M564.23,52.18c1.17-.58,3.51-.58,5.26-1.17.28-.09.36-6.16.6-6.28,1.78-3.89,8.66-3.7,8.58,1.38,0,2.82.28,7.44,4.48,5.91,2.94-1.07,5.55,1.2,5.94,4,.29,2.06,4.27,2.16,5.82,2.38,5,.69,5,9.59-.83,9.59-5.57,0-10.91-.42-16.47-.38-4.32,0-11.12,1-14.56-2C558.37,61.55,559.62,55.25,564.23,52.18Z" fill="#d9d9d9"/><path d="M614,52.26a10.69,10.69,0,0,0-9-7.29,10.67,10.67,0,0,0-18.73-4.48,10.49,10.49,0,0,0-2.69-1.37,10.68,10.68,0,0,0-13.55,6.67,10.56,10.56,0,0,0-.32,5.69,8.14,8.14,0,1,0-1.11,16.21h41.69A8.15,8.15,0,0,0,614,52.26Z" fill="none" stroke="#bcbec0" stroke-linecap="round" stroke-linejoin="round" stroke-width="2"/><path d="M93.51,61.73c2.87-3.68,6-7.34,10-9.32s9.2-1.93,12.45,1.36" fill="none" stroke="#bcbec0" stroke-linecap="round" stroke-linejoin="round" stroke-width="2"/><path d="M115.92,53.61c.34-3.72,3.41-6.59,6.7-7.58s6.79-.48,10.16.08" fill="none" stroke="#bcbec0" stroke-linecap="round" stroke-linejoin="round" stroke-width="2"/><path d="M89.72,42.78c-4.29-1.82-8.78-3.5-13.26-3.28s-8.95,2.78-10.18,7.22" fill="none" stroke="#bcbec0" stroke-linecap="round" stroke-linejoin="round" stroke-width="2"/><path d="M66.27,46.55c-2.12-3.08-6.18-4.1-9.53-3.37s-6.14,2.87-8.8,5" fill="none" stroke="#bcbec0" stroke-linecap="round" stroke-linejoin="round" stroke-width="2"/><path d="M118.67,268.46c0,7.26-6.43,13.14-14.36,13.14S90,275.72,90,268.46s6.25-20.75,14.36-13.14C110.68,263.33,118.67,261.2,118.67,268.46Z" fill="none" stroke="#bcbec0" stroke-linecap="round" stroke-linejoin="round" stroke-width="2"/><line x1="480.57" y1="56.66" x2="449.28" y2="72.58" fill="none" stroke-linecap="round" stroke-linejoin="round" stroke-width="3" stroke-dasharray="3 8" stroke="url(#a)"/><line x1="489.37" y1="90.67" x2="453.6" y2="87" fill="none" stroke-linecap="round" stroke-linejoin="round" stroke-width="3" stroke-dasharray="3 8" stroke="url(#b)"/><line x1="429.94" y1="18.64" x2="426.28" y2="54.42" fill="none" stroke-linecap="round" stroke-linejoin="round" stroke-width="3" stroke-dasharray="3 8" stroke="url(#c)"/><line x1="460.75" y1="30.87" x2="440.04" y2="60.57" fill="none" stroke-linecap="round" stroke-linejoin="round" stroke-width="3" stroke-dasharray="3 8" stroke="url(#d)"/></svg>